<svg width="64" height="64" viewBox="0 0 64 64" fill="none" xmlns="http://www.w3.org/2000/svg">
<g clip-path="url(#clip0_283_22)">
<g clip-path="url(#clip1_283_22)">
<path d="M32.0014 64.0027C49.6752 64.0027 64.0027 49.6752 64.0027 32.0014C64.0027 14.3275 49.6752 0 32.0014 0C14.3275 0 0 14.3275 0 32.0014C0 49.6752 14.3275 64.0027 32.0014 64.0027Z" fill="black"/>
<path d="M34.9447 14.9325C35.9759 14.6207 37.7293 14.7848 38.6347 15.4085C40.2541 16.5218 39.9614 19.7331 42.2317 20.7698C43.8183 21.4947 45.9792 20.2501 47.7764 20.6057C48.1046 20.6714 50.1781 22.2059 50.2902 22.3919C51.0233 23.5928 50.4188 26.2543 49.0292 26.8643C46.302 28.0679 41.4877 25.8276 40.161 30.1851C38.9766 34.0803 39.8301 36.2358 44.193 36.2959C47.6205 36.3424 47.9378 33.8943 50.0249 33.5605C51.0342 33.3992 53.1487 34.8161 53.507 35.6613C55.1784 39.6112 48.917 43.1864 45.7276 43.0989C44.5814 43.066 37.3518 41.5041 36.2795 41.061C34.8161 40.4565 33.4375 38.476 33.2514 36.9196C32.8548 33.6207 34.4796 29.1566 31.9795 26.7193C31.219 25.978 28.9842 25.2313 29.0827 23.6475C29.1155 23.1223 34.4359 15.0857 34.9392 14.9325H34.9447Z" fill="white"/>
<path d="M19.3529 19.5389C28.0104 18.9371 25.2723 26.175 25.5048 31.4625C25.6361 34.4769 26.0027 34.7778 25.5376 37.9208C24.6869 43.6541 32.2257 40.7792 34.1459 43.9687C36.2576 47.4782 30.3656 49.0429 27.8627 49.2043C25.4364 49.3602 23.322 48.5587 21.0516 48.463C18.267 48.3453 13.863 49.8088 11.8798 47.9514C9.48087 45.7057 9.53285 43.5119 12.8919 42.4834C15.3756 41.723 17.9223 42.8198 18.8988 39.5292C20.0176 35.7625 18.174 34.135 17.7144 31.3613C17.5175 30.1741 17.8758 28.4563 17.5694 27.5618C17.0278 25.978 11.3628 25.5349 13.5293 21.6151C14.3444 20.1434 17.7418 19.6511 19.3502 19.5389H19.3529Z" fill="white"/>
</g>
</g>
<defs>
<clipPath id="clip0_283_22">
<rect width="64" height="64" fill="white"/>
</clipPath>
<clipPath id="clip1_283_22">
<rect width="64" height="64" fill="white"/>
</clipPath>
</defs>
</svg>
